PathFileType	4	(X/Y/Z)	Kaydara	
DataRate	CameraRate	NumFrames	NumMarkers	Units	OrigDataRate	OrigDataStartFrame	OrigNumFrames	
120.00	120.00	4	72	mm	120.00	101	268	
Frame#	Time	Hips			RightUpLeg			RightLeg			RightFoot			RightFoot_End			LeftUpLeg			LeftLeg			LeftFoot			LeftFoot_End			Spine			Spine1			Spine2			Spine3			Neck			Head			Head_End			RightShoulder			RightArm			RightForeArm			RightHand			RightHandThumb1			RightHandThumb2			RightHandThumb3			RightHandThumb3_End			RightInHandIndex			RightHandIndex1			RightHandIndex2			RightHandIndex3			RightHandIndex3_End			RightInHandMiddle			RightHandMiddle1			RightHandMiddle2			RightHandMiddle3			RightHandMiddle3_End			RightInHandRing			RightHandRing1			RightHandRing2			RightHandRing3			RightHandRing3_End			RightInHandPinky			RightHandPinky1			RightHandPinky2			RightHandPinky3			RightHandPinky3_End			LeftShoulder			LeftArm			LeftForeArm			LeftHand			LeftHandThumb1			LeftHandThumb2			LeftHandThumb3			LeftHandThumb3_End			LeftInHandIndex			LeftHandIndex1			LeftHandIndex2			LeftHandIndex3			LeftHandIndex3_End			LeftInHandMiddle			LeftHandMiddle1			LeftHandMiddle2			LeftHandMiddle3			LeftHandMiddle3_End			LeftInHandRing			LeftHandRing1			LeftHandRing2			LeftHandRing3			LeftHandRing3_End			LeftInHandPinky			LeftHandPinky1			LeftHandPinky2			LeftHandPinky3			LeftHandPinky3_End			
		X1	Y1	Z1	X2	Y2	Z2	X3	Y3	Z3	X4	Y4	Z4	X5	Y5	Z5	X6	Y6	Z6	X7	Y7	Z7	X8	Y8	Z8	X9	Y9	Z9	X10	Y10	Z10	X11	Y11	Z11	X12	Y12	Z12	X13	Y13	Z13	X14	Y14	Z14	X15	Y15	Z15	X16	Y16	Z16	X17	Y17	Z17	X18	Y18	Z18	X19	Y19	Z19	X20	Y20	Z20	X21	Y21	Z21	X22	Y22	Z22	X23	Y23	Z23	X24	Y24	Z24	X25	Y25	Z25	X26	Y26	Z26	X27	Y27	Z27	X28	Y28	Z28	X29	Y29	Z29	X30	Y30	Z30	X31	Y31	Z31	X32	Y32	Z32	X33	Y33	Z33	X34	Y34	Z34	X35	Y35	Z35	X36	Y36	Z36	X37	Y37	Z37	X38	Y38	Z38	X39	Y39	Z39	X40	Y40	Z40	X41	Y41	Z41	X42	Y42	Z42	X43	Y43	Z43	X44	Y44	Z44	X45	Y45	Z45	X46	Y46	Z46	X47	Y47	Z47	X48	Y48	Z48	X49	Y49	Z49	X50	Y50	Z50	X51	Y51	Z51	X52	Y52	Z52	X53	Y53	Z53	X54	Y54	Z54	X55	Y55	Z55	X56	Y56	Z56	X57	Y57	Z57	X58	Y58	Z58	X59	Y59	Z59	X60	Y60	Z60	X61	Y61	Z61	X62	Y62	Z62	X63	Y63	Z63	X64	Y64	Z64	X65	Y65	Z65	X66	Y66	Z66	X67	Y67	Z67	X68	Y68	Z68	X69	Y69	Z69	X70	Y70	Z70	X71	Y71	Z71	X72	Y72	Z72	

101	0.833	446.8050000000003	859.65103	-201.189	538.9750199999999	868.40986	-213.62755000000004	408.81934999999976	471.16193000000004	-236.97960999999998	451.45524000000114	52.23633	-277.1860899999999	378.33698000000004	-26.24523	-118.96797	363.3787400000001	822.0298100000001	-176.56995999999998	241.14430999999968	425.6020200000001	-119.97978	185.52270999999928	71.50894	102.56056999999998	230.33804999999847	49.39358	287.06289	402.9693099999986	985.1801	-253.76084000000003	354.19837000000007	1056.4912	-298.12186	298.25307000000066	1125.99904	-345.73301999999995	237.89232000000084	1184.82996	-394.20018	172.72073	1248.0364299999999	-442.80289	142.98531999999977	1325.0914300000002	-394.58586	113.73531999999977	1407.9582000000003	-261.4776900000001	218.00892000000022	1244.88871	-437.17467999999997	320.2851100000007	1303.25489	-486.34907	499.09521999999924	1123.0468700000001	-564.1469	693.7112500000003	1166.45049	-731.0683499999998	711.0342299999993	1202.4266	-732.6668	721.0077700000002	1226.26505	-758.90636	729.5013499999986	1239.23059	-779.25959	737.9063400000014	1246.92929	-798.00658	719.7987100000009	1193.2906200000002	-738.51999	758.3673500000004	1218.24543	-765.20193	776.5221899999997	1232.4293399999997	-793.1161200000003	778.787980000001	1240.5258500000002	-811.83574	774.5783900000006	1246.74057	-828.25095	722.2537899999988	1182.3826700000004	-743.69281	761.20291	1200.8236399999998	-772.51288	781.2014399999989	1214.77691	-803.58049	784.0252199999995	1223.81363	-826.4566299999999	779.4629999999997	1230.25808	-844.5596000000002	723.1100800000004	1174.0529100000003	-746.59053	759.069660000001	1183.3883999999998	-774.71216	776.6300499999998	1193.96302	-802.3673300000003	779.4226099999996	1201.83681	-824.7393500000001	775.1655599999995	1207.4968199999998	-841.90579	722.14473	1163.623	-749.75596	754.8995900000009	1165.8088499999997	-777.2540599999999	769.0058700000009	1171.7597500000002	-800.1766500000001	771.064339999999	1176.2854399999999	-816.8709300000002	767.3057000000008	1180.5986	-832.2940199999999	169.11261999999988	1211.3361499999996	-413.12575999999996	91.00312999999915	1112.7671800000003	-388.31732	246.5344100000002	1085.7513900000004	-600.9015900000002	491.91258000000016	1157.3121900000003	-559.4604599999999	506.8044200000004	1192.8147600000002	-570.17129	529.6514700000007	1205.62566	-596.05856	543.2591900000007	1211.8573399999998	-616.8069699999998	552.6332300000013	1214.7513499999998	-636.4313299999999	498.5446000000011	1188.43847	-580.52337	506.0750599999992	1217.33154	-624.4629999999999	518.6367800000007	1226.7086400000003	-657.08595	531.7566899999983	1226.59797	-672.8646400000001	546.1979999999985	1222.49937	-682.88725	492.36679000000004	1179.60693	-586.4905600000001	496.36810999999943	1203.0144300000002	-632.5750300000001	509.2450200000003	1211.9742899999999	-668.8205399999998	524.6752299999989	1211.2301599999998	-688.1676	540.2829199999996	1206.4487	-699.2851699999999	487.7221099999988	1172.72725	-589.5908699999999	487.01901	1188.01713	-633.5999	497.3884600000001	1194.48806	-665.7806299999999	511.81854999999996	1193.0594499999997	-684.75519	526.2787700000008	1188.22682	-695.3567200000002	482.8431099999998	1163.1959599999996	-591.8458	478.8978499999994	1171.6789300000003	-633.6342899999999	485.87250999999924	1174.705	-660.1303799999998	495.75509000000056	1172.62021	-674.32215	508.19456999999966	1167.7391700000003	-683.9157599999999
102	0.842	446.8050000000003	859.65103	-201.189	539.0038800000002	868.5463499999997	-213.3128	408.85369999999966	471.28584	-236.48066	451.2189500000004	52.29237	-276.2638	378.10067999999956	-26.188750000000002	-118.04546	363.3502900000003	821.9028199999999	-176.86253000000002	241.26504999999997	425.4164400000001	-120.36076	185.1571099999992	71.87215999999998	102.92877999999999	230.04457999999977	49.727540000000005	287.41005	402.9662100000005	985.1303000000001	-253.87701	354.19582999999875	1056.4245300000002	-298.26574999999997	298.25293000000056	1125.9205900000002	-345.89694	237.90098000000035	1184.75731	-394.36801	172.73365999999987	1247.96573	-442.97391	143.30206999999973	1325.0562300000001	-394.62739	113.98831000000064	1407.9353799999997	-261.54096	218.00904000000082	1244.92478	-437.18619	320.30245000000104	1303.77878	-485.73942999999997	500.42119000000093	1124.64195	-562.99047	694.7074799999991	1171.8625199999997	-729.2586199999998	711.4258899999986	1208.1356700000001	-730.55302	721.08626	1232.3164400000003	-756.5957699999999	729.4301099999993	1245.5612000000003	-776.8308	737.7687900000001	1253.5275900000001	-795.49539	720.3636200000001	1199.18871	-736.43614	758.5975200000012	1224.97089	-762.81144	776.6068199999991	1239.64806	-790.56446	778.8003800000006	1247.9084799999998	-809.2209599999999	774.5433299999986	1254.1625799999997	-825.60895	723.0204599999997	1188.3590799999997	-741.6734099999999	761.7522000000008	1207.6494099999998	-770.2292400000001	781.6197300000003	1222.1484699999999	-801.1305299999999	784.3697200000006	1231.38656	-823.9351099999999	779.7620499999994	1237.87587	-842.0105299999999	724.0273199999992	1180.0648	-744.6240199999999	759.9213199999995	1190.196	-772.5533799999998	777.3963100000001	1201.2527	-800.07378	780.1329700000006	1209.3241100000002	-822.38219	775.84044	1215.02789	-839.5252899999999	723.2492199999997	1169.64182	-747.8629799999999	756.0575399999998	1172.56629	-775.22838	770.1406299999999	1178.9096600000003	-798.0598	772.1801899999991	1183.5826	-814.7157899999999	768.4026900000008	1187.93634	-830.1228700000001	169.11803000000054	1211.1411399999997	-413.45209	90.95859000000019	1112.4263599999997	-389.39202	247.14876000000004	1086.80083	-601.66511	491.3982700000015	1161.2113500000003	-558.60688	506.7430599999989	1196.71789	-568.6440500000001	529.8885699999992	1209.6974399999997	-594.1798000000001	543.691780000001	1216.1169400000003	-614.7409599999999	553.2182400000002	1219.2277	-634.2584799999998	498.5002000000004	1192.6026300000003	-579.11602	506.61779000000024	1222.1250300000002	-622.5296199999999	519.4830000000002	1231.89489	-654.91821	532.6983899999996	1231.8974400000002	-670.6174	547.1558600000008	1227.80422	-680.61888	492.2633800000003	1183.9384100000002	-585.26435	496.80547000000115	1208.05025	-630.93368	510.0037199999988	1217.4586599999996	-666.94923	525.5444000000007	1216.86071	-686.2127399999999	541.1674899999998	1212.0898	-697.3132	487.5631200000007	1177.1619199999998	-588.5049900000001	487.29965000000084	1193.1756600000003	-632.2606699999999	497.9382600000008	1200.05685	-664.26797	512.4691299999995	1198.77949	-683.1762900000001	526.9410900000003	1193.9616300000002	-693.7685299999999	482.59435999999914	1167.7231	-590.9452800000001	479.0008799999996	1176.93071	-632.61194	486.1721499999985	1180.3122399999997	-659.0124	496.1190699999988	1178.35081	-673.17678	508.56366999999955	1173.49036	-682.77419
103	0.85	446.8050000000003	859.65103	-201.189	539.0309699999998	868.68988	-212.99644	408.8192199999994	471.43993	-235.99867999999998	450.92401999999856	52.37782	-275.33271000000013	377.80565000000024	-26.10339	-117.11446000000001	363.3253599999989	821.7685300000002	-177.1586	241.44082999999955	425.21248	-120.71248999999999	184.82971999999972	72.19286	103.27905000000001	229.7736100000002	50.001490000000004	287.74096999999995	402.9555199999995	985.0811599999998	-253.98501	354.1743200000001	1056.3544000000002	-298.39557	298.22053999999844	1125.8324499999999	-346.04025	237.86254000000008	1184.66571	-394.5079799999999	172.68370999999934	1247.86568	-443.10943	143.5392499999998	1324.97979	-394.62682000000007	114.16113000000041	1407.8546200000003	-261.55188	217.9467399999994	1244.93648	-437.16951	320.24611000000004	1304.2832899999999	-485.10642999999993	501.65074000000095	1126.1988700000002	-561.7796800000002	695.5858900000003	1177.0294399999998	-727.39204	711.7182400000002	1213.5758600000001	-728.4061399999999	721.0763699999989	1238.06896	-754.26674	729.275169999999	1251.5707900000002	-774.39086	737.54889	1259.7853399999997	-792.9766200000001	720.8204600000008	1204.8110300000003	-734.3111800000001	758.7233699999997	1231.3701200000003	-760.39168	776.5894000000008	1246.5067400000003	-787.99008	778.71407	1254.9157	-806.5881099999999	774.4135900000001	1261.20028	-822.95309	723.6709200000005	1194.05813	-739.6044399999998	762.1845300000004	1214.1477599999998	-767.9030100000002	781.9224500000018	1229.15567	-798.64399	784.6021500000006	1238.57657	-821.38206	779.9531999999999	1245.10098	-839.4342599999999	724.8225000000002	1185.79947	-742.60167	760.6451099999995	1196.6815500000002	-770.3395600000001	778.0347999999994	1208.18815	-797.7292400000001	780.7183499999992	1216.4392900000003	-819.97827	776.3939699999992	1222.1776799999998	-837.1018099999999	724.2248899999995	1175.3852799999997	-745.9065799999998	757.0771599999989	1179.0082800000002	-773.1353600000002	771.1354300000003	1185.71861	-795.877	773.1572799999994	1190.52589	-812.4968700000001	769.3636800000004	1194.91215	-827.89076	169.0708999999997	1210.91864	-413.74066000000016	90.86762999999974	1112.0667699999997	-390.3964899999999	247.7170499999993	1087.81251	-602.34434	490.82780999999886	1164.9739200000001	-557.7120800000001	506.5898100000013	1200.48188	-567.0750600000001	530.0036400000008	1213.64452	-592.2702	543.9818400000004	1220.2622499999998	-612.6495	553.64401	1223.59879	-632.0627300000001	498.361280000001	1196.62716	-577.6568600000002	507.01368999999977	1226.7827799999998	-620.52856	520.1516200000005	1236.95689	-652.6823499999999	533.4501400000008	1237.08403	-668.3106799999999	547.91813	1233.0084600000002	-678.30415	492.06880999999885	1188.13156	-583.9813	497.1024900000011	1212.9522599999998	-629.2172900000002	510.5891299999985	1222.82195	-665.0018	526.2256900000011	1222.38398	-684.1918899999997	541.8581400000003	1217.63707	-695.28946	487.31662999999935	1181.45902	-587.35899	487.4516800000001	1198.2010499999997	-630.8418099999999	498.33148000000074	1205.5037599999998	-662.67416	512.9494099999993	1204.39106	-681.52568	527.4276100000006	1199.60066	-692.1218600000001	482.26436000000103	1172.1140999999998	-589.9823399999999	478.9885699999995	1182.0510100000001	-631.5074	486.33532000000014	1185.79726	-657.81019	496.33721999999943	1183.9690900000003	-671.95366	508.7824299999993	1179.1405399999999	-681.56638
104	0.858	446.8050000000003	859.65103	-201.189	539.0559400000002	868.82468	-212.69355000000002	408.72954000000027	471.6009199999999	-235.49791999999994	450.57678000000124	52.47246	-274.39762999999994	377.4583399999992	-26.009059999999998	-116.17957000000001	363.3016499999994	821.6426	-177.44150000000002	241.65644000000066	425.01462	-120.98449999999998	184.4957800000002	72.50741999999998	103.67347000000001	229.4677900000006	50.23212999999999	288.1184299999999	402.9489200000007	985.03423	-254.09090000000003	354.15308000000005	1056.2834	-298.52399	298.1830399999999	1125.7385399999998	-346.18294999999995	237.8119200000001	1184.56053	-394.64802999999995	172.61380999999983	1247.7436600000003	-443.2455299999999	143.7316299999993	1324.86924	-394.6244	114.28168000000005	1407.71627	-261.54803	217.86456999999973	1244.9267799999998	-437.1595699999999	320.16222000000016	1304.7511	-484.50291000000004	502.81718	1127.68737	-560.5692599999999	696.3838800000012	1181.9245299999998	-725.5308000000001	711.9477100000004	1218.72306	-726.2773400000001	721.0211900000013	1243.50488	-751.96372	729.0851000000002	1257.2464500000003	-771.9797899999999	737.3005600000015	1265.6939200000002	-790.4868099999998	721.2080900000001	1210.13468	-732.19573	758.7912699999997	1237.42828	-757.9788900000001	776.5241999999998	1252.99732	-785.4221500000001	778.5884100000003	1261.5434300000002	-803.96438	774.2529200000008	1267.8526800000002	-820.3106199999999	724.2462000000014	1199.4576100000002	-737.5378899999998	762.5494300000009	1220.3047100000001	-765.5728899999998	782.1680299999989	1235.79201	-796.15206	784.7872199999983	1245.38198	-818.8263999999999	780.1060099999995	1251.9351399999998	-836.85984	725.5379600000015	1191.23498	-740.5767600000001	761.2920799999993	1202.8306900000002	-768.1131399999999	778.604589999999	1214.7616099999998	-795.3698400000001	781.2440200000001	1223.17928	-817.5617	776.8960599999991	1228.94633	-834.66963	725.1155699999999	1180.8315999999998	-743.9422	758.0110699999987	1185.1200600000004	-771.0216999999999	772.0496700000003	1192.17717	-793.6703299999999	774.0597300000009	1197.1093	-810.25502	770.2569700000004	1201.5229	-825.6388299999999	169.0093999999999	1210.6795999999997	-414.02354	90.76105000000007	1111.69646	-391.39775	248.2574800000002	1088.7712699999997	-603.0134700000001	490.2235099999998	1168.5561500000001	-556.8011699999998	506.3626999999997	1204.0610499999996	-565.51037	530.0104599999995	1217.4120899999998	-590.3858700000001	544.1399000000001	1224.2303899999997	-610.59403	553.9181700000008	1227.7934700000003	-629.90862	498.1443299999992	1200.4599	-576.18896	507.2701500000003	1231.23298	-618.52033	520.6446500000002	1241.80887	-650.44614	534.0120499999994	1242.0660500000004	-666.0139899999999	548.4842900000003	1238.0173300000001	-676.0122199999998	491.7992400000003	1192.1301199999998	-582.67921	497.26622000000134	1217.64278	-627.4778299999999	511.00241000000096	1227.9707199999998	-663.03739	526.7179400000005	1227.69916	-682.1659500000001	542.3530300000002	1222.98627	-693.2742899999998	486.9987599999986	1185.5598299999997	-586.1865700000001	487.48301999999967	1203.0132799999997	-629.3862399999999	498.5708400000003	1210.73459	-661.04757	513.2599100000007	1209.79258	-679.85305	527.7382099999995	1205.03901	-690.4656499999999	481.86952999999994	1176.3081099999997	-588.9850500000001	478.86996	1186.9580599999997	-630.3539400000001	486.3669799999989	1191.0663300000006	-656.5600999999999	496.4128700000001	1189.37564	-670.68949	508.8536299999996	1184.5871600000003	-680.3279800000001
